HIERARCHY
ROOT Hips
{
 OFFSET 0.000000 0.000000 0.000000
 CHANNELS 6 Xposition Yposition Zposition Yrotation Xrotation Zrotation
 JOINT Chest
 {
  OFFSET 0.000000 9.585900 0.002600
  CHANNELS 3 Yrotation Xrotation Zrotation
  JOINT Chest2
  {
   OFFSET 0.000000 9.601200 -0.005300
   CHANNELS 3 Yrotation Xrotation Zrotation
   JOINT Chest3
   {
    OFFSET 0.000000 9.561800 0.000000
    CHANNELS 3 Yrotation Xrotation Zrotation
    JOINT Chest4
    {
     OFFSET 0.000000 9.552100 0.000000
     CHANNELS 3 Yrotation Xrotation Zrotation
     JOINT Neck
     {
      OFFSET 0.000000 14.453000 0.000000
      CHANNELS 3 Yrotation Xrotation Zrotation
      JOINT Head
      {
       OFFSET 0.000000 8.936500 -0.011300
       CHANNELS 3 Yrotation Xrotation Zrotation
       End Site
       {
        OFFSET 0.000000 17.073600 -0.006000
       }
      }
     }
     JOINT RightCollar
     {
      OFFSET -2.921100 9.558500 0.000000
      CHANNELS 3 Yrotation Xrotation Zrotation
      JOINT RightShoulder
      {
       OFFSET -13.519700 0.000000 0.000000
       CHANNELS 3 Yrotation Xrotation Zrotation
       JOINT RightElbow
       {
        OFFSET 0.000000 -29.696600 0.000000
        CHANNELS 3 Yrotation Xrotation Zrotation
        JOINT RightWrist
        {
         OFFSET 0.000000 -24.004700 0.000000
         CHANNELS 3 Yrotation Xrotation Zrotation
         End Site
         {
          OFFSET 0.000000 -17.728500 0.000000
         }
        }
       }
      }
     }
     JOINT LeftCollar
     {
      OFFSET 2.921100 9.558500 0.000000
      CHANNELS 3 Yrotation Xrotation Zrotation
      JOINT LeftShoulder
      {
       OFFSET 13.519700 0.000000 0.000000
       CHANNELS 3 Yrotation Xrotation Zrotation
       JOINT LeftElbow
       {
        OFFSET 0.000000 -29.696600 0.000000
        CHANNELS 3 Yrotation Xrotation Zrotation
        JOINT LeftWrist
        {
         OFFSET 0.000000 -24.004700 0.000000
         CHANNELS 3 Yrotation Xrotation Zrotation
         End Site
         {
          OFFSET 0.000000 -17.728500 0.000000
         }
        }
       }
      }
     }
    }
   }
  }
 }
 JOINT RightHip
 {
  OFFSET -7.771700 -0.012900 -0.001300
  CHANNELS 3 Yrotation Xrotation Zrotation
  JOINT RightKnee
  {
   OFFSET 0.000000 -40.869800 0.001200
   CHANNELS 3 Yrotation Xrotation Zrotation
   JOINT RightAnkle
   {
    OFFSET 0.000000 -39.717900 0.002100
    CHANNELS 3 Yrotation Xrotation Zrotation
    JOINT RightToe
    {
     OFFSET 0.000000 -4.965400 11.033500
     CHANNELS 3 Yrotation Xrotation Zrotation
     End Site
     {
      OFFSET 0.000000 -1.423100 5.872300
     }
    }
   }
  }
 }
 JOINT LeftHip
 {
  OFFSET 7.771700 -0.012900 -0.001300
  CHANNELS 3 Yrotation Xrotation Zrotation
  JOINT LeftKnee
  {
   OFFSET 0.000000 -40.869800 0.001200
   CHANNELS 3 Yrotation Xrotation Zrotation
   JOINT LeftAnkle
   {
    OFFSET 0.000000 -39.717900 0.002100
    CHANNELS 3 Yrotation Xrotation Zrotation
    JOINT LeftToe
    {
     OFFSET 0.000000 -4.965400 11.033500
     CHANNELS 3 Yrotation Xrotation Zrotation
     End Site
     {
      OFFSET 0.000000 -1.423100 5.872300
     }
    }
   }
  }
 }
}
MOTION
Frames: 13
Frame Time: 0.008333
0.000000 85.388000 0.000000 0.000000 -5.767877 0.000000 0.000000 11.653817 0.000000 0.000000 -5.885947 0.000000 0.000000 -0.000000 0.000000 0.000000 -0.000000 0.000000 0.000000 12.528835 0.000000 0.000000 0.711642 0.000000 0.000000 -0.000000 0.000000 0.000000 0.000000 -90.000000 0.000000 -2.309062 0.000000 0.000000 2.309062 0.000000 0.000000 -0.000000 0.000000 0.000000 -0.000000 90.000000 0.000000 -2.309062 0.000000 0.000000 2.309062 0.000000 0.000000 8.520406 0.000000 0.000000 1.905762 0.000000 -0.000000 -4.658285 0.000000 0.000000 -0.000000 0.000000 0.000000 8.520406 0.000000 0.000000 1.905762 0.000000 -0.000000 -4.658285 0.000000 0.000000 -0.000000 0.000000
-43.340895 44.030251 31.631216 173.481027 -31.558881 0.072289 0.091620 19.008785 2.107671 0.010468 2.249747 0.331117 -0.023101 3.716760 0.518665 0.160586 16.473555 2.340890 -1.106112 11.449764 -5.412342 0.074295 -13.603226 -5.579733 10.820774 0.542747 -3.311016 -13.840195 -9.593580 -5.558796 -148.899313 -59.378983 167.819514 -9.733206 -1.791097 -38.775163 -18.374086 -1.801376 -5.387620 7.965147 -6.246023 1.062153 122.788931 -59.755934 -155.078648 17.258254 16.932353 24.816152 -1.964226 -60.927055 13.394538 -152.830285 70.836403 -151.995063 -15.261190 -24.908891 9.064904 0.448758 -1.118088 0.235609 4.529085 -49.835591 -2.004981 175.247057 63.157232 176.094630 -1.059373 -35.819226 2.311935 0.001556 0.077752 -0.012590
-43.340032 44.031090 31.618532 173.503290 -31.540974 0.073036 0.098315 18.983900 2.120456 0.007085 2.240398 0.330560 -0.023052 3.696181 0.517209 0.160092 16.433276 2.341243 -1.100928 11.450590 -5.425502 0.082938 -13.602179 -5.595750 10.829610 0.482072 -3.370100 -13.803567 -9.335494 -5.246959 -148.973062 -59.438590 167.821378 -9.753566 -1.803593 -38.959258 -18.385247 -1.889539 -5.294080 7.657743 -6.375402 1.502230 122.132850 -59.695760 -154.549181 17.288870 17.110944 24.753764 -1.971992 -60.948937 13.387514 -152.889493 70.810243 -152.059975 -15.242529 -24.911026 9.057098 0.449162 -1.126924 0.240167 4.520525 -49.841981 -2.016912 175.258064 63.156977 176.097356 -1.066391 -35.827800 2.320358 0.002027 0.076516 -0.009854
-43.338421 44.030848 31.605313 173.507482 -31.504437 0.079787 0.134899 18.944203 2.154281 -0.013193 2.227846 0.315737 -0.023711 3.675039 0.515615 0.156480 16.391825 2.340899 -1.091872 11.451401 -5.439038 0.095866 -13.601132 -5.613091 10.842133 0.422094 -3.424771 -13.772445 -9.096310 -4.975365 -149.002459 -59.500504 167.792701 -9.787705 -1.799672 -39.123221 -18.392193 -1.981678 -5.200100 7.399701 -6.487120 1.957531 121.559405 -59.627959 -154.104786 17.304041 17.230771 24.685448 -1.983875 -60.986811 13.400646 -152.930119 70.787525 -152.109973 -15.242702 -24.925894 9.057546 0.450047 -1.118776 0.240320 4.533691 -49.865695 -2.026038 175.263555 63.154603 176.096082 -1.076483 -35.837698 2.331383 0.002300 0.073351 -0.006440
-43.335534 44.027091 31.595869 173.496257 -31.422365 0.084437 0.150216 18.861648 2.161121 0.000514 2.213504 0.324323 -0.028636 3.663197 0.511521 0.155070 16.339001 2.343215 -1.079276 11.452814 -5.451293 0.112344 -13.599467 -5.629823 10.855217 0.371720 -3.471726 -13.747793 -8.881081 -4.747410 -149.002697 -59.561141 167.741425 -9.828815 -1.771092 -39.243609 -18.401396 -2.075016 -5.109087 7.194284 -6.583583 2.424938 121.053447 -59.550907 -153.737867 17.311082 17.292968 24.641506 -2.024047 -61.070807 13.457609 -152.920882 70.767501 -152.119968 -15.246440 -24.942180 9.058308 0.455216 -1.085726 0.237137 4.560337 -49.940612 -2.027462 175.277399 63.148977 176.106749 -1.083370 -35.847814 2.340933 0.000428 0.073311 -0.001254
-43.338864 44.026356 31.578830 173.526083 -31.371497 0.109038 0.132421 18.810466 2.138182 -0.003847 2.197985 0.323554 -0.029904 3.640749 0.510271 0.148632 16.294542 2.344521 -1.065343 11.454277 -5.462091 0.129884 -13.597750 -5.645177 10.865932 0.334899 -3.509772 -13.729652 -8.694098 -4.567158 -148.976663 -59.620234 167.668840 -9.867424 -1.713303 -39.309720 -18.414547 -2.168164 -5.024307 7.036225 -6.668015 2.901437 120.599022 -59.461713 -153.441045 17.321677 17.303965 24.651508 -2.036320 -61.122199 13.442027 -152.968775 70.732778 -152.192650 -15.299467 -24.975250 9.084139 0.506497 -1.063373 0.235926 4.601727 -49.973085 -2.095561 175.272281 63.151940 176.096127 -1.102719 -35.858795 2.361434 0.001075 0.073472 0.001128
-43.347412 44.030178 31.552027 173.591282 -31.371267 0.151304 0.066915 18.806969 2.075575 -0.012187 2.193156 0.316881 -0.022040 3.600793 0.516911 0.134780 16.300522 2.338657 -1.044076 11.413883 -5.464238 0.149009 -13.597081 -5.658222 10.877754 0.269382 -3.541883 -13.727236 -8.555040 -4.486193 -148.819216 -59.664907 167.469286 -9.896861 -1.634216 -39.317427 -18.425003 -2.295583 -4.928620 6.911718 -6.746843 3.386528 120.202420 -59.364505 -153.213356 17.345885 17.265854 24.730482 -2.011782 -61.122807 13.346924 -153.032783 70.684672 -152.282285 -15.380708 -24.973827 9.113606 0.491771 -1.100965 0.239841 4.652028 -49.940566 -2.208109 175.282193 63.163361 176.087967 -1.129608 -35.871983 2.399674 0.002207 0.073455 0.003294
-43.345843 44.026899 31.536576 173.592318 -31.289698 0.156836 0.083338 18.724923 2.092999 -0.023663 2.186443 0.305297 -0.025098 3.588620 0.515636 0.133475 16.278804 2.340520 -1.025127 11.371041 -5.461347 0.162067 -13.575719 -5.668918 10.879962 0.214812 -3.566210 -13.718131 -8.433164 -4.420310 -148.704251 -59.711043 167.316228 -9.918876 -1.545604 -39.264345 -18.439176 -2.418679 -4.836786 6.811448 -6.823966 3.876944 119.874192 -59.269279 -153.054428 17.387894 17.178147 24.871743 -2.047779 -61.205857 13.383292 -153.044610 70.658185 -152.311853 -15.386223 -24.990223 9.121303 0.523815 -1.104410 0.240693 4.674694 -50.008921 -2.222856 175.291834 63.156935 176.095194 -1.137044 -35.888505 2.407397 0.002078 0.072947 0.007155
-43.350123 44.025180 31.516653 173.605531 -31.227523 0.190254 0.061724 18.661503 2.056017 -0.021350 2.171051 0.309416 -0.028822 3.585646 0.510927 0.126497 16.155021 2.360273 -1.021000 11.471940 -5.483079 0.164842 -13.554327 -5.673857 10.873878 0.274642 -3.583429 -13.697471 -8.321873 -4.331925 -148.685731 -59.774933 167.267092 -9.933395 -1.462462 -39.161198 -18.449886 -2.444743 -4.797274 6.725138 -6.897540 4.365022 119.626406 -59.186609 -152.967822 17.440012 17.044767 25.056238 -2.001245 -61.268147 13.320270 -153.046233 70.620113 -152.325041 -15.395043 -25.027567 9.159762 0.546612 -1.106432 0.229106 4.725525 -50.049357 -2.294710 175.290154 63.156884 176.088533 -1.145206 -35.900586 2.413264 0.006777 0.071978 0.011451
-43.349953 44.020734 31.500726 173.616918 -31.136212 0.190930 0.051319 18.566801 2.058611 -0.022267 2.157438 0.309137 -0.030691 3.564492 0.510698 0.118836 16.096840 2.374408 -0.996342 11.464004 -5.486296 0.210002 -13.606763 -5.682854 10.858403 0.293961 -3.604696 -13.695672 -8.221366 -4.273423 -148.637031 -59.830897 167.219835 -9.940839 -1.400523 -39.037833 -18.458436 -2.510926 -4.743341 6.641521 -6.964851 4.844925 119.470938 -59.120829 -152.953351 17.493135 16.880814 25.267849 -2.036015 -61.360211 13.345478 -153.026612 70.585291 -152.335910 -15.332474 -25.037097 9.168788 0.504422 -1.127593 0.221245 4.746118 -50.129422 -2.309385 175.310908 63.149248 176.105163 -1.159556 -35.916866 2.425809 0.009566 0.073165 0.016877
-43.347049 44.016492 31.483998 173.580548 -31.049627 0.195039 0.086769 18.478057 2.082743 -0.022927 2.144890 0.309606 -0.031836 3.544666 0.511354 0.112193 16.058373 2.386107 -0.972182 11.434531 -5.482452 0.235436 -13.617933 -5.690739 10.832956 0.291425 -3.626699 -13.704387 -8.139980 -4.257658 -148.536592 -59.884319 167.144499 -9.944760 -1.367215 -38.926080 -18.469037 -2.594919 -4.681243 6.555976 -7.025559 5.315720 119.391248 -59.065044 -152.986118 17.537026 16.704983 25.493576 -2.061743 -61.445450 13.412427 -152.962260 70.550055 -152.294365 -15.271354 -25.071953 9.177607 0.450290 -1.114364 0.207929 4.779162 -50.196664 -2.257152 175.385244 63.140276 176.155448 -1.200910 -35.953329 2.477157 0.012524 0.080354 0.019963
-43.348469 44.013569 31.464138 173.570553 -30.980158 0.207353 0.092091 18.407648 2.084617 -0.032876 2.121344 0.319507 -0.031355 3.512553 0.511219 0.104244 16.045065 2.387562 -0.954361 11.426448 -5.482015 0.254503 -13.626376 -5.694622 10.824561 0.325539 -3.644441 -13.823124 -8.111537 -4.293457 -148.279141 -59.911353 167.001502 -9.946707 -1.361636 -38.844688 -18.476719 -2.677551 -4.620439 6.464547 -7.079053 5.777951 119.365580 -59.014523 -153.043254 17.564788 16.529625 25.721885 -2.057752 -61.515738 13.406054 -152.920067 70.515184 -152.269457 -15.191800 -25.059808 9.165508 0.421228 -1.142321 0.207383 4.804059 -50.247079 -2.265058 175.402064 63.131853 176.161603 -1.212446 -35.972832 2.491105 0.011775 0.075010 0.021109
-43.347979 44.012005 31.442005 173.551477 -30.927422 0.208855 0.102301 18.354895 2.100334 -0.029348 2.116783 0.313817 -0.029299 3.509514 0.509661 0.090708 15.986655 2.408625 -0.937708 11.420453 -5.480564 0.266438 -13.595242 -5.712204 10.791899 0.287231 -3.675022 -13.884715 -8.028353 -4.366308 -148.018551 -59.923504 166.831916 -9.941756 -1.362722 -38.800304 -18.480409 -2.758124 -4.561847 6.367559 -7.125017 6.230470 119.382106 -58.965785 -153.117705 17.585228 16.369562 25.947386 -2.061101 -61.569420 13.426095 -152.859720 70.480243 -152.222962 -15.115140 -25.029112 9.147106 0.406405 -1.175100 0.214061 4.815810 -50.280219 -2.234860 175.446491 63.119758 176.190574 -1.227968 -35.992608 2.500017 0.012783 0.065744 0.033515
